# xmcd CD database file
#
# Track frame offsets:
#	150
#	20132
#	31967
#	46350
#	63197
#	95400
#	119632
#	137070
#	162335
#	184555
#	200820
#	213697
#
# Disc length: 3181 seconds
#
# Revision: 4
# Processed by: cddbd v1.5.2PL0 Copyright (c) Steve Scherf et al.
# Submitted via: CDex 1.70beta3
#
DISCID=b30c6b0c
DTITLE=Various Artist - JAZZ??????-??????JAZZ???
DYEAR=1996
DGENRE=Jazz
TTITLE0=????????
TTITLE1=????????
TTITLE2=???????????
TTITLE3=?????
TTITLE4=??????
TTITLE5=???????????????
TTITLE6=??????????
TTITLE7=?????
TTITLE8=??????
TTITLE9=?????????????????
TTITLE10=?????????????????
TTITLE11=????
EXTD=YEAR: 1996
EXTT0=
EXTT1=
EXTT2=
EXTT3=
EXTT4=
EXTT5=
EXTT6=
EXTT7=
EXTT8=
EXTT9=
EXTT10=
EXTT11=
PLAYORDER=
